<svg aria-hidden="true" style="position:absolute;width:0;height:0" xmlns="http://www.w3.org/2000/svg" overflow="hidden"><defs><symbol id="icon-burger-menu" viewBox="0 0 32 32"><path d="M2.666 8c0-.737.597-1.334 1.334-1.334h24a1.334 1.334 0 110 2.668H4A1.334 1.334 0 012.666 8zm0 8.042A1.335 1.335 0 014 14.709h24l.039-.001a1.334 1.334 0 110 2.668l-.041-.001H28 4a1.334 1.334 0 01-1.334-1.334zM4 22.752a1.334 1.334 0 00-.002 2.666H28l.039.001a1.334 1.334 0 100-2.668l-.041.001H28 4z"/></symbol><symbol id="icon-arrow-btn" viewBox="0 0 32 32"><path d="M20.318 21.44a1.504 1.504 0 00-.369 1.659 1.503 1.503 0 001.417.938 1.51 1.51 0 001.071-.478l7.562-7.56-7.56-7.56a1.499 1.499 0 00-2.543 1.065c-.004.393.147.772.42 1.055l3.94 3.94H3.498a1.503 1.503 0 00-1.5 1.5 1.503 1.503 0 001.5 1.5h20.758l-3.94 3.94z"/></symbol><symbol id="icon-btn-close" viewBox="0 0 32 32"><path d="M16 17.866L9.466 24.4c-.244.244-.555.366-.934.366s-.688-.122-.933-.366-.367-.556-.367-.934.122-.688.367-.933l6.533-6.534-6.533-6.534c-.245-.244-.367-.555-.367-.933s.122-.689.367-.934c.244-.245.555-.366.933-.366s.69.122.934.366L16 14.132l6.533-6.534c.245-.245.556-.366.934-.366s.689.122.934.366c.244.245.366.555.366.934s-.122.688-.366.933l-6.534 6.534 6.534 6.534c.244.244.366.555.366.933s-.122.689-.366.934c-.245.244-.556.366-.934.366s-.688-.122-.933-.366L16 17.866z"/></symbol></defs></svg>