<svg width="58" height="30" fill="none" xmlns="http://www.w3.org/2000/svg"><path fill-rule="evenodd" clip-rule="evenodd" d="M14.79 0c8.17 0 14.79 6.72 14.79 15.004C29.58 23.288 22.96 30 14.79 30 6.62 30 0 23.288 0 15.004 0 6.721 6.62 0 14.79 0zm.315 9.157c-3.323 0-5.982 2.68-5.982 6.09 0 3.386 2.66 6.066 5.982 6.066a5.64 5.64 0 004.06-1.705c.116-.118.116-.235 0-.353l-1.102-1.193c-.1-.117-.232-.117-.348-.017a3.826 3.826 0 01-2.627 1.008c-2.03 0-3.62-1.63-3.62-3.805 0-2.193 1.59-3.831 3.62-3.831 1.07 0 1.93.386 2.627 1.017.116.1.248.1.348-.017l1.102-1.202c.116-.117.116-.235 0-.352-1.036-1.042-2.444-1.706-4.06-1.706zM37.37 11.17a4.09 4.09 0 012.865 1.142c.082.08.082.158 0 .238l-.775.802c-.07.08-.164.08-.246.012a2.788 2.788 0 00-1.856-.68c-1.432 0-2.56 1.098-2.56 2.568 0 1.458 1.128 2.555 2.56 2.555.751 0 1.362-.26 1.856-.678.082-.068.176-.068.246.01l.775.804c.082.079.082.158 0 .237a4.09 4.09 0 01-2.865 1.142c-2.348 0-4.227-1.798-4.227-4.07 0-2.284 1.879-4.082 4.227-4.082zm5.495 2.352c.775 0 1.35.339 1.75.848l.058-.566c.012-.101.071-.17.176-.17h1.022c.106 0 .176.069.176.17v5.202c0 .101-.07.17-.176.17h-1.022c-.105 0-.163-.069-.176-.17l-.07-.543c-.376.464-.951.792-1.738.792-1.62 0-2.794-1.256-2.794-2.839 0-1.616 1.174-2.894 2.794-2.894zm5.143-2.6c.106 0 .176.067.176.169v7.915c0 .101-.07.169-.176.169H46.81c-.106 0-.176-.068-.176-.169v-7.915c0-.102.07-.17.176-.17h1.198zm7.832 2.589c1.256 0 2.16.859 2.16 2.34v3.155c0 .101-.07.169-.176.169h-1.198c-.105 0-.176-.068-.176-.169v-2.884c0-.916-.516-1.232-1.069-1.232-.868 0-1.268.667-1.268 1.063v3.053c0 .101-.07.169-.175.169H52.74c-.106 0-.176-.068-.176-.169v-2.884c0-.916-.517-1.232-1.08-1.232-.87 0-1.269.825-1.269 1.085v3.031c0 .101-.07.169-.176.169h-1.197c-.106 0-.176-.068-.176-.169v-5.202c0-.101.07-.17.176-.17h1.15c.106 0 .165.069.177.17l.046.724v.012c.376-.589.987-1.03 1.82-1.03.763 0 1.41.362 1.773 1.03.411-.6 1.092-1.03 2.032-1.03zm-12.799 1.368c-.857 0-1.48.633-1.48 1.526 0 .86.623 1.492 1.48 1.492.87 0 1.468-.644 1.468-1.492 0-.837-.598-1.527-1.468-1.527z" fill="#353732"/></svg>