<svg aria-hidden="true" style="position: absolute; width: 0; height: 0; overflow: hidden;" version="1.1" xmlns="http://www.w3.org/2000/svg" xmlns:xlink="http://www.w3.org/1999/xlink">
<defs>
<symbol id="icon-burger-menu" viewBox="0 0 32 32">
<path d="M2.666 8c0-0.737 0.597-1.334 1.334-1.334v0h24c0.737 0 1.334 0.597 1.334 1.334s-0.597 1.334-1.334 1.334h-24c-0.737 0-1.334-0.597-1.334-1.334v0zM2.666 16.042c0.001-0.736 0.598-1.333 1.334-1.333 0 0 0 0 0 0h24c0.012-0 0.025-0.001 0.039-0.001 0.737 0 1.334 0.597 1.334 1.334s-0.597 1.334-1.334 1.334c-0.014 0-0.027-0-0.041-0.001l0.002 0h-24c-0.737 0-1.334-0.597-1.334-1.334v0zM4 22.752c-0.72 0.022-1.295 0.61-1.295 1.333s0.575 1.311 1.293 1.333l0.002 0h24c0.012 0 0.025 0.001 0.039 0.001 0.737 0 1.334-0.597 1.334-1.334s-0.597-1.334-1.334-1.334c-0.014 0-0.027 0-0.041 0.001l0.002-0h-24z"></path>
</symbol>
<symbol id="icon-arrow-btn" viewBox="0 0 32 32">
<path d="M20.318 21.44c-0.147 0.137-0.266 0.303-0.348 0.487s-0.126 0.383-0.13 0.584c-0.004 0.201 0.034 0.401 0.109 0.588s0.188 0.356 0.33 0.499c0.142 0.142 0.312 0.255 0.499 0.33s0.387 0.112 0.588 0.109c0.201-0.004 0.4-0.048 0.584-0.13s0.35-0.2 0.487-0.348l7.562-7.56-7.56-7.56c-0.283-0.273-0.662-0.425-1.055-0.421s-0.77 0.161-1.048 0.439c-0.278 0.278-0.436 0.654-0.44 1.047s0.147 0.772 0.42 1.055l3.94 3.94h-20.758c-0.398 0-0.779 0.158-1.061 0.439s-0.439 0.663-0.439 1.061c0 0.398 0.158 0.779 0.439 1.061s0.663 0.439 1.061 0.439h20.758l-3.94 3.94z"></path>
</symbol>
<symbol id="icon-btn-close" viewBox="0 0 32 32">
<path d="M16 17.866l-6.534 6.534c-0.244 0.244-0.555 0.366-0.934 0.366s-0.688-0.122-0.933-0.366-0.367-0.556-0.367-0.934c0-0.378 0.122-0.688 0.367-0.933l6.533-6.534-6.533-6.534c-0.245-0.244-0.367-0.555-0.367-0.933s0.122-0.689 0.367-0.934c0.244-0.245 0.555-0.366 0.933-0.366s0.69 0.122 0.934 0.366l6.534 6.534 6.533-6.534c0.245-0.245 0.556-0.366 0.934-0.366s0.689 0.122 0.934 0.366c0.244 0.245 0.366 0.555 0.366 0.934s-0.122 0.688-0.366 0.933l-6.534 6.534 6.534 6.534c0.244 0.244 0.366 0.555 0.366 0.933s-0.122 0.689-0.366 0.934c-0.245 0.244-0.556 0.366-0.934 0.366s-0.688-0.122-0.933-0.366l-6.534-6.534z"></path>
</symbol>
<symbol id="icon-swipe" viewBox="0 0 32 32">
<path d="M25.5 17.5v4.5c0 3.082-1.010 5.137-1.053 5.224-0.086 0.158-0.251 0.264-0.441 0.264-0.276 0-0.501-0.224-0.501-0.501 0-0.077 0.017-0.149 0.048-0.214l-0.001 0.003c0.009-0.018 0.947-1.943 0.947-4.776v-4.5c0-1.105-0.895-2-2-2s-2 0.895-2 2v0 0.5c0 0.276-0.224 0.5-0.5 0.5s-0.5-0.224-0.5-0.5v0-2.5c0-1.105-0.895-2-2-2s-2 0.895-2 2v0 1.5c0 0.276-0.224 0.5-0.5 0.5s-0.5-0.224-0.5-0.5v0-8.5c0-1.105-0.895-2-2-2s-2 0.895-2 2v0 13.5c-0.002 0.275-0.225 0.498-0.501 0.498-0.177 0-0.333-0.092-0.422-0.232l-0.001-0.002-2.335-3.75c-0.351-0.607-0.997-1.008-1.737-1.008-1.105 0-2.001 0.896-2.001 2.001 0 0.365 0.098 0.707 0.269 1.002l-0.005-0.010 3.665 6.25c0.032 0.064 0.050 0.139 0.050 0.218 0 0.276-0.224 0.5-0.5 0.5-0.171 0-0.322-0.086-0.412-0.216l-0.001-0.002-3.666-6.249c-0.255-0.432-0.405-0.951-0.405-1.506 0-1.657 1.343-3 3-3 1.102 0 2.066 0.595 2.587 1.481l0.008 0.014 1.407 2.261v-11.75c0-1.657 1.343-3 3-3s3 1.343 3 3v0 4.766c0.528-0.475 1.231-0.765 2.001-0.765 1.577 0 2.87 1.217 2.991 2.763l0.001 0.010c0.529-0.478 1.234-0.771 2.007-0.771 1.656 0 2.998 1.341 3 2.997v0zM30 6.5h-7.794l3.149-3.146c0.090-0.091 0.146-0.216 0.146-0.354 0-0.276-0.224-0.501-0.501-0.501-0.138 0-0.264 0.056-0.354 0.147v0l-4 4c-0.090 0.091-0.146 0.216-0.146 0.354s0.056 0.263 0.146 0.354l4 4c0.091 0.091 0.216 0.147 0.354 0.147 0.276 0 0.501-0.224 0.501-0.501 0-0.138-0.056-0.263-0.146-0.354v0l-3.149-3.146h7.794c0.276 0 0.5-0.224 0.5-0.5s-0.224-0.5-0.5-0.5v0z"></path>
</symbol>
</defs>
</svg>