<svg aria-hidden="true" style="position: absolute; width: 0; height: 0; overflow: hidden;" version="1.1" xmlns="http://www.w3.org/2000/svg" xmlns:xlink="http://www.w3.org/1999/xlink">
<defs>
<symbol id="icon-menu-burger" viewBox="0 0 32 32">
<path d="M4 8h24M4 16h24M4 24h24"></path>
</symbol>
<symbol id="icon-arrow-btn" viewBox="0 0 32 32">
<path d="M20.318 21.44c-0.147 0.137-0.266 0.303-0.348 0.487s-0.126 0.383-0.13 0.584c-0.004 0.201 0.034 0.401 0.109 0.588s0.188 0.356 0.33 0.499c0.142 0.142 0.312 0.255 0.499 0.33s0.387 0.112 0.588 0.109c0.201-0.004 0.4-0.048 0.584-0.13s0.35-0.2 0.487-0.348l7.562-7.56-7.56-7.56c-0.283-0.273-0.662-0.425-1.055-0.421s-0.77 0.161-1.048 0.439c-0.278 0.278-0.436 0.654-0.44 1.047s0.147 0.772 0.42 1.055l3.94 3.94h-20.758c-0.398 0-0.779 0.158-1.061 0.439s-0.439 0.663-0.439 1.061c0 0.398 0.158 0.779 0.439 1.061s0.663 0.439 1.061 0.439h20.758l-3.94 3.94z"></path>
</symbol>
</defs>
</svg>